<svg width="161" height="40" viewBox="0 0 161 40" fill="none" xmlns="http://www.w3.org/2000/svg">
<g clip-path="url(#clip0_821_10205)">
<path d="M36.6667 16.376C36.6667 18.52 34.8934 20.3227 32.504 20.8214C32.0774 20.912 31.6267 20.9574 31.168 20.9574C30.5547 20.9574 29.9654 20.8747 29.4107 20.7174C27.7094 20.2374 26.3814 19.0854 25.88 17.64C25.832 17.5067 25.7974 17.3707 25.7654 17.2347C25.7307 17.3307 25.696 17.4267 25.6534 17.5254C24.8214 19.456 22.6 20.8427 20 20.8427C17.4 20.8427 15.1814 19.456 14.344 17.5254C14.3067 17.432 14.2667 17.3387 14.2374 17.2427C14.208 17.376 14.1707 17.5094 14.1227 17.64C13.6294 19.096 12.288 20.256 10.5787 20.736C10.032 20.888 9.44269 20.9734 8.83202 20.9734C8.36802 20.9734 7.92269 20.9254 7.49069 20.8374C5.10402 20.3334 3.33069 18.5307 3.33069 16.392C3.33069 15.832 3.45069 15.296 3.67469 14.7974L3.68269 14.7814L7.09602 7.1307H7.09869C7.88002 5.38403 9.62936 4.16803 11.6667 4.16803H28.3334C30.368 4.16803 32.1174 5.38403 32.896 7.12803C32.912 7.15736 32.9254 7.1867 32.9387 7.22136L36.3227 14.7787C36.544 15.2747 36.6667 15.816 36.6667 16.3787V16.376Z" fill="#0AB8A6" style="fill:#0AB8A6;fill:color(display-p3 0.0392 0.7216 0.6510);fill-opacity:1;"/>
<path d="M33.2933 25.4987C33.2933 25.5307 33.2933 25.568 33.2853 25.6027C33.2853 25.6267 33.2853 25.6533 33.2773 25.6773V25.6907C32.6773 31.3787 26.96 35.8347 19.9973 35.8347C13.0346 35.8347 7.31731 31.3787 6.71731 25.6907V25.6773C6.71198 25.6533 6.71198 25.6267 6.71198 25.6027C6.70398 25.5707 6.70398 25.5333 6.70398 25.4987C6.70398 24.7627 7.30131 24.1653 8.03731 24.1653C8.71731 24.1653 9.27731 24.6747 9.35998 25.3333C9.36265 25.352 9.36265 25.376 9.36798 25.4C9.81865 29.744 14.4106 33.168 19.9973 33.168C25.584 33.168 30.1786 29.744 30.6266 25.4C30.6293 25.376 30.6293 25.352 30.632 25.3333C30.7146 24.6773 31.2746 24.1653 31.9546 24.1653C32.6906 24.1653 33.288 24.7627 33.288 25.4987H33.2933Z" fill="#0AB8A6" style="fill:#0AB8A6;fill:color(display-p3 0.0392 0.7216 0.6510);fill-opacity:1;"/>
</g>
<g opacity="0.9">
<path d="M46.1037 18.7808C47.5757 17.5541 48.9383 16.1381 49.837 15.0741C50.5997 14.3381 51.6637 14.9114 51.6637 15.7274V31.5354C51.6637 31.8074 51.501 31.9728 51.309 31.9728H49.9463C49.7277 31.9728 49.565 31.8101 49.565 31.5354V18.4234C49.101 18.9141 48.2023 19.8954 47.165 20.7674C47.0823 20.8501 46.973 20.8208 46.893 20.6581L46.0477 19.1594C45.965 18.9674 45.9943 18.8608 46.101 18.7781L46.1037 18.7808ZM46.4877 12.8394C48.1517 11.6394 49.621 10.2501 50.821 8.75144C50.9837 8.61544 51.1197 8.61544 51.229 8.72477L52.293 9.75944C52.4557 9.9221 52.4557 10.0314 52.3757 10.1674C51.013 11.8021 49.541 13.2208 47.6877 14.6101C47.5517 14.7194 47.3597 14.6634 47.2797 14.5274L46.4343 13.2181C46.3517 13.0821 46.3517 12.9461 46.4903 12.8368L46.4877 12.8394ZM54.5277 24.4768V22.3781C54.5277 21.7514 54.8557 21.4501 55.4263 21.4501H59.7063C60.6343 21.4501 61.1223 21.6688 61.1223 22.8954V26.8474L61.421 31.6714C61.4477 31.8634 61.3117 31.9728 61.149 31.9728H59.7597C59.597 31.9728 59.4877 31.9168 59.461 31.7008L59.133 26.9034V23.6874C59.133 23.5248 59.077 23.4421 58.861 23.4421H56.789C56.517 23.4421 56.4903 23.5514 56.4903 23.7434V24.9968C56.4903 26.0608 56.245 28.0768 55.2103 31.7008C55.1543 31.8928 54.9917 31.9728 54.8557 31.9728H53.357C53.165 31.9728 53.029 31.8368 53.1383 31.6181C54.2823 27.9648 54.5277 25.8954 54.5277 24.4768ZM53.437 9.70344C53.437 9.54077 53.5463 9.43144 53.709 9.43144H54.9623C55.1543 9.43144 55.261 9.5141 55.261 9.70344L55.2877 13.0288C55.2877 13.3568 55.397 13.4661 55.6957 13.4661H57.005V8.1781C57.005 7.9861 57.0877 7.87677 57.2503 7.87677H58.613C58.7757 7.87677 58.8583 7.9861 58.8583 8.1781V13.4661H60.1117C60.3837 13.4661 60.4663 13.3568 60.4663 13.0288V9.70344C60.4663 9.54077 60.5757 9.43144 60.7383 9.43144H61.9917C62.1543 9.43144 62.2903 9.5141 62.2903 9.70344V14.4181C62.2903 14.9648 61.9623 15.2634 61.4183 15.2634H54.277C53.733 15.2634 53.4317 14.9648 53.4317 14.4181V9.70344H53.437ZM54.173 17.3914H61.6423C61.8877 17.3914 62.0503 17.5541 62.0503 17.8288V18.9194C62.0503 19.1914 61.8877 19.3541 61.6423 19.3541H54.173C53.9543 19.3541 53.7917 19.1914 53.7917 18.9194V17.8288C53.7917 17.5568 53.9543 17.3914 54.173 17.3914ZM65.893 25.4048C64.965 23.3328 64.3677 21.0448 63.9303 18.3461L62.4583 17.6368C62.3223 17.5274 62.213 17.4181 62.3223 17.2554C63.6023 14.6394 64.5303 10.9328 64.885 8.55944C64.9117 8.28744 65.077 8.1221 65.349 8.15144L66.4663 8.26077C66.765 8.28744 66.9037 8.45277 66.8743 8.72477C66.6823 9.7061 66.4663 10.8768 66.1943 12.1594H71.2637C71.4557 12.1594 71.5623 12.2688 71.5623 12.4314V13.9301C71.5623 14.1221 71.453 14.2288 71.2637 14.2288H70.2557C70.037 18.8074 69.493 22.1594 68.1303 25.2688C69.1117 27.1754 70.421 28.8394 72.109 30.5301C72.245 30.6661 72.1917 30.8021 72.0557 30.9114L70.7757 32.0554C70.6397 32.1648 70.477 32.1381 70.3677 32.0021C68.9783 30.5034 67.861 29.0314 66.9597 27.5034C66.0877 28.9754 64.997 30.4208 63.6343 31.9728C63.525 32.1088 63.389 32.1354 63.253 32.0261L61.9437 30.9088C61.8077 30.7994 61.8077 30.6634 61.917 30.5274C63.661 28.8101 64.9437 27.1754 65.8957 25.4021L65.893 25.4048ZM67.0103 22.7328C67.7997 20.3328 68.1543 17.6368 68.3197 14.2288H65.677C65.5677 14.5834 65.4583 14.9648 65.3223 15.3461C65.7303 18.2901 66.277 20.6874 67.013 22.7328H67.0103Z" fill="black" fill-opacity="0.9" style="fill:black;fill-opacity:0.9;"/>
<path d="M80.4796 31.9728H79.0343C78.789 31.9728 78.6796 31.8101 78.6796 31.5355V17.3621C78.053 18.4261 77.3996 19.4341 76.6636 20.3888C76.5543 20.5248 76.365 20.5248 76.2556 20.4155L74.9196 19.4341C74.8103 19.3248 74.8103 19.1888 74.9196 19.0528C77.3196 15.9728 79.4183 11.8581 80.5623 8.31413C80.645 8.12213 80.781 8.06879 80.9436 8.12213L82.525 8.58613C82.6876 8.63946 82.7703 8.74879 82.6876 8.96746C82.1143 10.3568 81.517 11.8021 80.8343 13.2475V31.5381C80.8343 31.8101 80.6983 31.9755 80.4796 31.9755V31.9728ZM82.8503 11.1221C82.8503 10.9301 82.9596 10.8235 83.1223 10.8235H90.237V8.45279C90.237 8.29013 90.3463 8.15413 90.4556 8.15413H92.2823C92.3916 8.15413 92.501 8.29013 92.501 8.45279V10.8235H99.6423C99.8343 10.8235 99.941 10.9328 99.941 11.1221V12.5941C99.941 12.7568 99.8316 12.8661 99.6423 12.8661H83.125C82.9623 12.8661 82.853 12.7568 82.853 12.5941V11.1221H82.8503ZM84.1596 24.4768C84.1596 23.5781 84.6503 23.0608 85.5756 23.0608H96.725C97.653 23.0608 98.1436 23.5781 98.1436 24.4768V30.3648C98.1436 31.2635 97.653 31.7808 96.725 31.7808H85.5756C84.6476 31.7808 84.1596 31.2635 84.1596 30.3648V24.4768ZM84.4316 15.2368C84.4316 15.0741 84.541 14.9648 84.7303 14.9648H97.597C97.7596 14.9648 97.869 15.0741 97.869 15.2368V16.5728C97.869 16.7648 97.7596 16.8715 97.597 16.8715H84.7303C84.5383 16.8715 84.4316 16.7621 84.4316 16.5728V15.2368ZM84.4316 19.2448C84.4316 19.0821 84.541 18.9728 84.7303 18.9728H97.597C97.7596 18.9728 97.869 19.0821 97.869 19.2448V20.6341C97.869 20.7968 97.7596 20.9061 97.597 20.9061H84.7303C84.5383 20.9061 84.4316 20.7968 84.4316 20.6341V19.2448ZM86.613 29.7648H95.6636C95.8263 29.7648 95.9623 29.6555 95.9623 29.4661V25.3515C95.9623 25.1595 95.8263 25.0528 95.6636 25.0528H86.6423C86.4796 25.0528 86.3436 25.1621 86.3436 25.3515V29.4661C86.3436 29.6581 86.453 29.7648 86.6156 29.7648H86.613Z" fill="black" fill-opacity="0.9" style="fill:black;fill-opacity:0.9;"/>
<path d="M103.949 26.7114C106.21 21.5594 107.192 17.0901 107.874 12.9728C107.901 12.8101 108.01 12.7008 108.173 12.7274L109.973 12.9194C110.165 12.9461 110.245 13.0288 110.218 13.2474C109.618 17.3354 108.584 21.8874 106.485 27.0954C106.429 27.2314 106.266 27.3674 106.13 27.3408L104.168 27.0421C103.976 27.0154 103.896 26.9061 103.949 26.7141V26.7114ZM110.328 29.5461H113C114.554 29.5461 114.744 29.1648 114.744 27.5568V8.4501C114.744 8.28743 114.853 8.1781 115.042 8.1781H116.922C117.058 8.1781 117.168 8.28743 117.168 8.4501V28.2394C117.168 31.0741 116.213 31.8634 113.597 31.8634H110.872C110.709 31.8634 110.6 31.7808 110.573 31.6181L110.136 29.8474C110.082 29.6288 110.136 29.5488 110.328 29.5488V29.5461ZM121.202 12.9194L123.002 12.5648C123.138 12.5381 123.248 12.6208 123.33 12.7834C124.858 16.6554 126.712 22.1328 127.882 26.5754C127.938 26.7674 127.829 26.8474 127.664 26.8768L125.728 27.3114C125.592 27.3381 125.456 27.2021 125.429 27.0394C124.285 22.6501 122.485 17.1168 121.013 13.2741C120.93 13.0554 121.04 12.9461 121.205 12.9194H121.202Z" fill="black" fill-opacity="0.9" style="fill:black;fill-opacity:0.9;"/>
<path d="M134.808 18.0448V11.9648C134.808 11.0661 135.298 10.5488 136.224 10.5488H144.864V8.20479C144.864 8.01279 144.973 7.90613 145.109 7.90613H146.962C147.098 7.90613 147.208 8.01546 147.208 8.20479V10.5488H156.066C156.229 10.5488 156.338 10.6581 156.338 10.8208V12.3755C156.338 12.5675 156.229 12.6768 156.066 12.6768H137.341C137.178 12.6768 137.069 12.7861 137.069 12.9488V17.4741C137.069 24.6421 136.36 27.5328 133.933 31.7568C133.85 31.8928 133.661 31.9195 133.525 31.8661L131.97 30.9115C131.808 30.7755 131.752 30.6928 131.861 30.5301C134.013 26.9595 134.805 24.2075 134.805 18.0475L134.808 18.0448ZM155.714 16.3275V17.8261C155.714 18.0181 155.632 18.1248 155.469 18.1248H147.101V21.5595H153.042C153.941 21.5595 154.458 22.0768 154.458 22.9755V30.3355C154.458 31.2341 153.941 31.7515 153.042 31.7515H140.613C139.714 31.7515 139.197 31.2341 139.197 30.3355V22.9755C139.197 22.0768 139.714 21.5595 140.613 21.5595H144.837V13.9008C144.837 13.7088 144.946 13.5995 145.056 13.5995H146.856C146.992 13.5995 147.101 13.7088 147.101 13.9008V16.0528H155.469C155.632 16.0528 155.714 16.1621 155.714 16.3248V16.3275ZM141.757 29.6848H151.925C152.088 29.6848 152.197 29.5755 152.197 29.3861V23.9355C152.197 23.7728 152.088 23.6368 151.925 23.6368H141.757C141.565 23.6368 141.458 23.7728 141.458 23.9355V29.3861C141.458 29.5781 141.568 29.6848 141.757 29.6848Z" fill="black" fill-opacity="0.9" style="fill:black;fill-opacity:0.9;"/>
</g>
<defs>
<clipPath id="clip0_821_10205">
<rect width="40" height="40" fill="white" style="fill:white;fill-opacity:1;"/>
</clipPath>
</defs>
</svg>
